Coordinates
version=1
nRows=18
nColumns=22
inDegrees=yes

Units are S.I. units (second, meters, Newtons, ...)
If the header above contains a line with 'inDegrees', this indicates whether rotational values are in degrees (yes) or radians (no).

endheader
time	pelvis_tilt	pelvis_list	pelvis_rotation	pelvis_tx	pelvis_ty	pelvis_tz	hip_flexion_r	hip_adduction_r	hip_rotation_r	knee_angle_r	ankle_angle_r	subtalar_angle_r	hip_flexion_l	hip_adduction_l	hip_rotation_l	knee_angle_l	ankle_angle_l	subtalar_angle_l	lumbar_extension	lumbar_bending	lumbar_rotation
      0.01000000	     -4.80287564	     -8.78004300	      5.60374033	     -1.05635516	      0.97779593	      0.14643852	     10.34627211	      8.45400685	     -2.48446685	    -15.91629429	      6.41765458	     -2.82068411	      7.63651719	     -7.53911841	      7.60172506	    -10.18093682	     11.49109899	     -2.11490774	      4.24604419	      7.47717036	     -5.83529600
      0.02000000	     -4.80425359	     -8.51278541	      5.62219004	     -1.05657670	      0.97752869	      0.14616524	     10.37864542	      8.14183665	     -3.01637047	    -16.12685851	      7.22530219	     -1.73243412	      7.55525562	     -7.23680927	      7.58308127	    -10.07105848	     11.45342906	     -2.19105188	      4.20571076	      7.19414856	     -5.84893496
      0.03000000	     -4.81893408	     -8.26634548	      5.62690938	     -1.05685978	      0.97726793	      0.14590312	     10.42603657	      7.85107245	     -3.46247097	    -16.32393612	      7.98148063	     -0.63656605	      7.49010473	     -6.95813967	      7.53446398	     -9.95565240	     11.41386075	     -2.21721676	      4.17560402	      6.93601131	     -5.85634971
      0.04000000	     -4.83339388	     -8.06361307	      5.64085302	     -1.05718422	      0.97705912	      0.14564015	     10.47316774	      7.60604709	     -3.82014039	    -16.48561106	      8.59089476	      0.19776912	      7.42765685	     -6.72711090	      7.50372978	     -9.82601281	     11.34612567	     -2.22624358	      4.14734254	      6.72533263	     -5.86797024
      0.05000000	     -4.84450075	     -7.91117913	      5.66582296	     -1.05751453	      0.97691127	      0.14538697	     10.51219483	      7.41480437	     -4.08194131	    -16.60089846	      9.03039073	      0.78969775	      7.37022229	     -6.55176836	      7.47623715	     -9.69414861	     11.29341728	     -2.22536655	      4.12250550	      6.56830145	     -5.90396259
      0.06000000	     -4.84854026	     -7.80684815	      5.70338244	     -1.05783629	      0.97682225	      0.14513951	     10.53928047	      7.27608547	     -4.26178163	    -16.67403280	      9.30752313	      1.13210239	      7.31766538	     -6.42911722	      7.45877506	     -9.56952660	     11.25096888	     -2.21805411	      4.09758551	      6.46281502	     -5.96169522
      0.07000000	     -4.84440281	     -7.75642680	      5.75006904	     -1.05812659	      0.97678273	      0.14489601	     10.54533181	      7.19397692	     -4.39197057	    -16.69679369	      9.47911833	      1.38838682	      7.27657386	     -6.36437160	      7.45572684	     -9.47034765	     11.21825867	     -2.21207797	      4.07409457	      6.41646706	     -5.99528178
      0.08000000	     -4.84202477	     -7.73251869	      5.80273059	     -1.05838192	      0.97676772	      0.14466807	     10.54888927	      7.14360107	     -4.48413546	    -16.69446333	      9.54306294	      1.41762361	      7.24689930	     -6.32807086	      7.45656244	     -9.38310109	     11.18547054	     -2.20374762	      4.06031387	      6.39629154	     -6.03941793
      0.09000000	     -4.85013770	     -7.73068277	      5.84633031	     -1.05858008	      0.97676211	      0.14445485	     10.54119305	      7.11948722	     -4.53173733	    -16.64321299	      9.53475360	      1.43136058	      7.23757233	     -6.31500531	      7.44070486	     -9.31618793	     11.17581326	     -2.20107175	      4.06828672	      6.39986650	     -6.06724150
      0.10000000	     -4.81563060	     -7.74302921	      5.94555640	     -1.05874748	      0.97682015	      0.14419410	     10.48238417	      7.10672356	     -4.62532902	    -16.57260460	      9.48144829	      1.44967426	      7.19335365	     -6.31563038	      7.51834962	     -9.25140983	     11.13421831	     -2.18954082	      4.03704509	      6.41367124	     -6.13574600
      0.11000000	     -4.79705344	     -7.76005125	      6.02109379	     -1.05887476	      0.97686123	      0.14395949	     10.43104891	      7.10341473	     -4.68582732	    -16.48569083	      9.39246898	      1.43585350	      7.17594471	     -6.32058829	      7.55097204	     -9.21422630	     11.11496344	     -2.18331002	      4.03021149	      6.43483929	     -6.17450703
      0.12000000	     -4.77406565	     -7.78198525	      6.10638793	     -1.05898827	      0.97690318	      0.14373142	     10.37059649	      7.10690586	     -4.75930730	    -16.38748033	      9.29877566	      1.39372558	      7.16314183	     -6.33047157	      7.60163761	     -9.18978230	     11.10529388	     -2.17468370	      4.02092231	      6.45653569	     -6.20716014
      0.13000000	     -4.75207837	     -7.79915684	      6.19230695	     -1.05908368	      0.97693845	      0.14349748	     10.31045801	      7.10559236	     -4.83522232	    -16.29085129	      9.19788884	      1.33936630	      7.15940041	     -6.33318505	      7.65423471	     -9.18226996	     11.09846206	     -2.16399058	      4.01621121	      6.47271806	     -6.22830285
      0.14000000	     -4.72828327	     -7.81616821	      6.28144760	     -1.05917724	      0.97696844	      0.14327202	     10.25159095	      7.10535660	     -4.91940587	    -16.19984400	      9.10633690	      1.26728961	      7.15936205	     -6.33586861	      7.71783651	     -9.18331356	     11.09599450	     -2.14914945	      4.00847039	      6.48610550	     -6.24424038
      0.15000000	     -4.70753768	     -7.82563619	      6.36534471	     -1.05925562	      0.97698876	      0.14304253	     10.20014520	      7.09731671	     -4.99805598	    -16.12224311	      9.02549277	      1.19752621	      7.16501391	     -6.32908425	      7.77698289	     -9.19366576	     11.09563777	     -2.13283461	      4.00574983	      6.49220412	     -6.24662078
      0.16000000	     -4.68778250	     -7.83383344	      6.44574361	     -1.05930594	      0.97700214	      0.14281525	     10.15428924	      7.08829889	     -5.07308406	    -16.05920828	      8.96431592	      1.12953760	      7.17009219	     -6.32172205	      7.83646042	     -9.20659407	     11.09638011	     -2.11383562	      4.00738783	      6.49664264	     -6.24255351
      0.17000000	     -4.68213215	     -7.83431251	      6.49536774	     -1.05935450	      0.97699366	      0.14262392	     10.13033484	      7.07479911	     -5.10621141	    -16.01617916	      8.94380231	      1.12034585	      7.18484280	     -6.30800242	      7.85536978	     -9.21983772	     11.09651338	     -2.10996381	      4.01807997	      6.49285392	     -6.19008905
      0.18000000	     -4.65715593	     -7.83411050	      6.57919796	     -1.05937245	      0.97701520	      0.14236304	     10.08405020	      7.05519774	     -5.17896761	    -15.97211783	      8.87368014	      1.09231502	      7.18456848	     -6.28890183	      7.92583275	     -9.23871646	     11.10074418	     -2.09092127	      4.01411519	      6.49311332	     -6.20583901
